<?xml version="1.0" encoding="UTF-8" standalone="no"?>
<svg
   xmlns:dc="http://purl.org/dc/elements/1.1/"
   xmlns:cc="http://creativecommons.org/ns#"
   xmlns:rdf="http://www.w3.org/1999/02/22-rdf-syntax-ns#"
   xmlns:svg="http://www.w3.org/2000/svg"
   xmlns="http://www.w3.org/2000/svg"
   xmlns:sodipodi="http://sodipodi.sourceforge.net/DTD/sodipodi-0.dtd"
   xmlns:inkscape="http://www.inkscape.org/namespaces/inkscape"
   id="Calque_1"
   data-name="Calque 1"
   viewBox="0 0 991.53027 223.53999"
   version="1.1"
   sodipodi:docname="logo-dark.svg"
   width="991.53027"
   height="223.53999"
   inkscape:version="0.92.3 (unknown)">
  <metadata
     id="metadata1256">
    <rdf:RDF>
      <cc:Work
         rdf:about="">
        <dc:format>image/svg+xml</dc:format>
        <dc:type
           rdf:resource="http://purl.org/dc/dcmitype/StillImage" />
        <dc:title>open-source-platform-vector</dc:title>
      </cc:Work>
    </rdf:RDF>
  </metadata>
  <sodipodi:namedview
     pagecolor="#ffffff"
     bordercolor="#666666"
     borderopacity="1"
     objecttolerance="10"
     gridtolerance="10"
     guidetolerance="10"
     inkscape:pageopacity="0"
     inkscape:pageshadow="2"
     inkscape:window-width="3840"
     inkscape:window-height="2020"
     id="namedview1254"
     showgrid="false"
     showborder="false"
     borderlayer="false"
     inkscape:showpageshadow="true"
     fit-margin-top="0"
     fit-margin-left="0"
     fit-margin-right="0"
     fit-margin-bottom="0"
     inkscape:zoom="1.6409375"
     inkscape:cx="342.53366"
     inkscape:cy="111.77"
     inkscape:window-x="0"
     inkscape:window-y="68"
     inkscape:window-maximized="1"
     inkscape:current-layer="Calque_1" />
  <defs
     id="defs1213">
    <style
       id="style1211">.cls-1{fill:#24221f;}.cls-2{fill:#374046;}.cls-3{fill:#4d606e;}.cls-4{fill:#5f7d89;}.cls-5{fill:#fbb431;}.cls-6{fill:#fab431;}</style>
  </defs>
  <title
     id="title1215">open-source-platform-vector</title>
  <path
     class="cls-1"
     d="m 26.93026,28.89 a 141,141 0 0 0 0,165.76 l 114.07,-82.88 z"
     id="path1217"
     inkscape:connector-curvature="0"
     style="fill:#24221f" />
  <path
     class="cls-2"
     d="m 104.68026,0 a 117.53,117.53 0 0 0 0,223.54 l 36.32,-111.77 z"
     id="path1219"
     inkscape:connector-curvature="0"
     style="fill:#374046" />
  <path
     class="cls-3"
     d="m 170.05026,22.35 a 94,94 0 1 0 0,178.84 l -29,-89.42 z"
     id="path1221"
     inkscape:connector-curvature="0"
     style="fill:#4d606e" />
  <path
     class="cls-4"
     d="m 141.00026,111.77 57,-41.43 a 70.5,70.5 0 1 0 0,82.86 z"
     id="path1223"
     inkscape:connector-curvature="0"
     style="fill:#5f7d89" />
  <circle
     class="cls-5"
     cx="141.00026"
     cy="111.77"
     r="47"
     id="circle1225"
     style="fill:#fbb431" />
  <path
     class="cls-2"
     d="m 276.47026,141.5 q -15.27,0 -23.78,-10.4 -8.51,-10.4 -8.5,-30.62 0,-20.22 8.5,-31.08 8.5,-10.86 23.78,-10.86 10.11,0 16.95,4.54 a 29.81,29.81 0 0 1 10.63,12.93 l -7.81,4.76 a 22.22,22.22 0 0 0 -7.36,-9.94 q -4.93,-3.74 -12.41,-3.73 a 21,21 0 0 0 -9.24,2 19.05,19.05 0 0 0 -6.9,5.59 26.09,26.09 0 0 0 -4.31,8.65 39.52,39.52 0 0 0 -1.49,11.24 v 12 q 0,12.45 5.75,19.48 5.75,7.03 16.19,7 a 20.52,20.52 0 0 0 12.87,-4 22.88,22.88 0 0 0 7.59,-10.51 l 7.69,4.82 a 30.78,30.78 0 0 1 -10.91,13.33 q -7.12,4.8 -17.24,4.8 z"
     id="path1227"
     inkscape:connector-curvature="0"
     style="fill:#374046" />
  <path
     class="cls-2"
     d="m 318.64026,55.1 h 9.19 v 35.27 h 0.46 a 19.26,19.26 0 0 1 6.15,-8 q 4,-3 10.62,-3 9.19,0 14.54,5.92 5.35,5.92 5.34,16.72 v 38 h -9.19 v -36.5 q 0,-16 -13.44,-16 a 20.71,20.71 0 0 0 -5.35,0.69 15.58,15.58 0 0 0 -4.65,2.08 10.17,10.17 0 0 0 -3.27,3.51 9.94,9.94 0 0 0 -1.21,5 v 41.22 h -9.19 z"
     id="path1229"
     inkscape:connector-curvature="0"
     style="fill:#374046" />
  <path
     class="cls-2"
     d="m 426.98026,140.12 q -5.18,0 -7.41,-2.76 a 13.69,13.69 0 0 1 -2.81,-6.89 h -0.58 a 15.38,15.38 0 0 1 -6.43,8.27 20,20 0 0 1 -10.69,2.76 q -9.42,0 -14.65,-4.83 -5.23,-4.83 -5.22,-13.1 0,-8.39 6.14,-12.86 6.14,-4.47 19.13,-4.49 h 11.72 v -5.86 q 0,-6.31 -3.45,-9.65 -3.45,-3.34 -10.57,-3.33 a 15.94,15.94 0 0 0 -9,2.41 19.89,19.89 0 0 0 -6,6.44 l -5.51,-5.17 a 20.9,20.9 0 0 1 7.7,-8.22 c 3.52,-2.25 8,-3.39 13.32,-3.39 q 10.8,0 16.78,5.28 5.98,5.28 6,14.67 v 32.56 h 6.78 v 8.16 z m -26.42,-6.44 a 23.19,23.19 0 0 0 6.31,-0.8 15.5,15.5 0 0 0 5,-2.3 11.34,11.34 0 0 0 3.21,-3.44 8.23,8.23 0 0 0 1.15,-4.26 v -9.76 h -12.23 q -7.92,0 -11.54,2.3 a 7.4,7.4 0 0 0 -3.62,6.66 v 2.41 a 8,8 0 0 0 3.16,6.78 q 3.15,2.42 8.56,2.41 z"
     id="path1231"
     inkscape:connector-curvature="0"
     style="fill:#374046" />
  <path
     class="cls-2"
     d="m 467.65026,141.5 a 26.61,26.61 0 0 1 -10.91,-2.19 23.45,23.45 0 0 1 -8.45,-6.26 29.38,29.38 0 0 1 -5.45,-9.76 42.68,42.68 0 0 1 0,-25.57 29.28,29.28 0 0 1 5.45,-9.82 23.45,23.45 0 0 1 8.45,-6.26 26.61,26.61 0 0 1 10.91,-2.19 26.28,26.28 0 0 1 10.86,2.19 24.12,24.12 0 0 1 8.44,6.26 28.73,28.73 0 0 1 5.52,9.87 42.89,42.89 0 0 1 0,25.57 28.83,28.83 0 0 1 -5.52,9.76 24.12,24.12 0 0 1 -8.44,6.26 26.28,26.28 0 0 1 -10.86,2.14 z m 0,-8.16 a 16.68,16.68 0 0 0 12.18,-4.6 q 4.71,-4.59 4.71,-14 v -8.51 q 0,-9.42 -4.71,-14 a 18.43,18.43 0 0 0 -24.36,0 q -4.71,4.59 -4.71,14 v 8.54 q 0,9.42 4.71,14 a 16.68,16.68 0 0 0 12.18,4.57 z"
     id="path1233"
     inkscape:connector-curvature="0"
     style="fill:#374046" />
  <path
     class="cls-2"
     d="m 527.37026,141.5 q -8.28,0 -13.85,-3.16 a 31.51,31.51 0 0 1 -9.59,-8.45 l 6.55,-5.28 a 25.71,25.71 0 0 0 7.69,6.72 20.09,20.09 0 0 0 9.89,2.35 c 3.9,0 7,-0.84 9.13,-2.52 a 9.19,9.19 0 0 0 1,-13 q -2.24,-2.48 -8.1,-3.39 l -4.71,-0.69 a 40.3,40.3 0 0 1 -7.58,-1.78 21.15,21.15 0 0 1 -6,-3.22 13.81,13.81 0 0 1 -4,-5 16.24,16.24 0 0 1 -1.44,-7.12 17.16,17.16 0 0 1 1.61,-7.64 15.51,15.51 0 0 1 4.42,-5.46 19.5,19.5 0 0 1 6.72,-3.27 31,31 0 0 1 8.39,-1.1 26.21,26.21 0 0 1 12.12,2.53 27.14,27.14 0 0 1 8.56,7 l -6.09,5.52 a 18.14,18.14 0 0 0 -5.74,-5 18.46,18.46 0 0 0 -9.54,-2.24 q -5.75,0 -8.67,2.47 a 8.32,8.32 0 0 0 -2.93,6.72 c 0,2.91 1,5 2.93,6.32 a 21.87,21.87 0 0 0 8.44,2.87 l 4.6,0.69 q 9.87,1.5 14,5.69 a 14.93,14.93 0 0 1 4.14,11 q 0,8.61 -5.86,13.56 -5.86,4.95 -16.09,4.88 z"
     id="path1235"
     inkscape:connector-curvature="0"
     style="fill:#374046" />
  <path
     class="cls-6"
     d="m 566.46026,140.12 v -80.2 h 31.91 q 10.8,0 16.6,6.15 5.8,6.15 5.8,16.83 0,10.69 -5.8,16.83 -5.8,6.14 -16.6,6.15 h -22.29 v 34.24 z m 9.65,-42.74 h 22.26 q 5.74,0 8.9,-3 3.16,-3 3.16,-8.5 v -6 c 0,-3.67 -1,-6.51 -3.16,-8.5 -2.16,-1.99 -5.07,-3 -8.9,-3 h -22.29 z"
     id="path1237"
     inkscape:connector-curvature="0"
     style="fill:#fab431" />
  <path
     class="cls-6"
     d="m 644.93026,140.12 q -4.83,0 -7.3,-2.7 a 9.77,9.77 0 0 1 -2.47,-6.84 V 55.1 h 9.21 v 76.86 h 8.74 v 8.16 z"
     id="path1239"
     inkscape:connector-curvature="0"
     style="fill:#fab431" />
  <path
     class="cls-6"
     d="m 709.50026,140.12 q -5.18,0 -7.41,-2.76 a 13.61,13.61 0 0 1 -2.82,-6.89 h -0.57 a 15.4,15.4 0 0 1 -6.44,8.27 20,20 0 0 1 -10.68,2.76 q -9.42,0 -14.65,-4.83 -5.23,-4.83 -5.23,-13.1 0,-8.39 6.15,-12.86 6.15,-4.47 19.13,-4.49 h 11.72 v -5.86 q 0,-6.31 -3.45,-9.65 -3.45,-3.34 -10.57,-3.33 a 16,16 0 0 0 -9,2.41 20,20 0 0 0 -6,6.44 l -5.52,-5.17 a 21,21 0 0 1 7.7,-8.22 c 3.52,-2.25 8,-3.39 13.33,-3.39 q 10.8,0 16.77,5.28 5.97,5.28 6,14.67 v 32.56 h 6.78 v 8.16 z m -26.43,-6.44 a 23.21,23.21 0 0 0 6.32,-0.8 15.44,15.44 0 0 0 4.94,-2.3 11.37,11.37 0 0 0 3.22,-3.44 8.33,8.33 0 0 0 1.15,-4.26 v -9.76 h -12.18 c -5.29,0 -9.13,0.76 -11.55,2.3 a 7.42,7.42 0 0 0 -3.62,6.66 v 2.41 a 8,8 0 0 0 3.16,6.78 q 3.16,2.42 8.56,2.41 z"
     id="path1241"
     inkscape:connector-curvature="0"
     style="fill:#fab431" />
  <path
     class="cls-6"
     d="m 740.86026,140.12 c -3.21,0 -5.65,-0.9 -7.29,-2.69 a 10,10 0 0 1 -2.47,-7.06 V 88.99 h -9.73 v -8.16 h 5.52 c 2,0 3.34,-0.4 4.07,-1.2 0.73,-0.8 1.1,-2.2 1.1,-4.2 v -11 h 8.27 v 16.43 h 13 v 8.16 h -13 v 43 h 12.04 v 8.16 z"
     id="path1243"
     inkscape:connector-curvature="0"
     style="fill:#fab431" />
  <path
     class="cls-6"
     d="m 770.16026,88.99 h -9.65 v -8.16 h 9.65 V 68.88 q 0,-6.19 3.22,-10 3.22,-3.81 9.76,-3.79 h 9 v 8.15 h -12.77 v 17.58 h 12.75 v 8.16 h -12.75 v 51.13 h -9.19 z"
     id="path1245"
     inkscape:connector-curvature="0"
     style="fill:#fab431" />
  <path
     class="cls-6"
     d="m 826.11026,141.5 a 26.61,26.61 0 0 1 -10.91,-2.19 23.45,23.45 0 0 1 -8.45,-6.26 29.38,29.38 0 0 1 -5.45,-9.76 42.68,42.68 0 0 1 0,-25.57 29.28,29.28 0 0 1 5.45,-9.82 23.45,23.45 0 0 1 8.45,-6.26 26.61,26.61 0 0 1 10.91,-2.19 26.28,26.28 0 0 1 10.86,2.19 24.12,24.12 0 0 1 8.44,6.26 28.73,28.73 0 0 1 5.52,9.82 42.89,42.89 0 0 1 0,25.57 28.83,28.83 0 0 1 -5.52,9.76 24.12,24.12 0 0 1 -8.44,6.26 26.28,26.28 0 0 1 -10.86,2.19 z m 0,-8.16 a 16.68,16.68 0 0 0 12.18,-4.6 q 4.71,-4.59 4.71,-14 v -8.51 q 0,-9.42 -4.71,-14 a 18.43,18.43 0 0 0 -24.36,0 q -4.71,4.59 -4.71,14 v 8.54 q 0,9.42 4.71,14 a 16.68,16.68 0 0 0 12.18,4.57 z"
     id="path1247"
     inkscape:connector-curvature="0"
     style="fill:#fab431" />
  <path
     class="cls-6"
     d="M 868.05026,140.12 V 80.83 h 9.19 v 10.94 h 0.57 a 17.88,17.88 0 0 1 5.75,-7.58 c 2.75,-2.23 6.55,-3.34 11.37,-3.34 h 3.56 v 9.2 h -5.4 q -7.47,0 -11.66,2.81 c -2.8,1.88 -4.19,4.23 -4.19,7.07 v 40.21 z"
     id="path1249"
     inkscape:connector-curvature="0"
     style="fill:#fab431" />
  <path
     class="cls-6"
     d="M 910.21026,140.12 V 80.83 h 9.16 v 9.54 h 0.46 a 31.24,31.24 0 0 1 2.36,-4.26 14.48,14.48 0 0 1 7.64,-5.8 18.62,18.62 0 0 1 6,-0.86 21.57,21.57 0 0 1 10.8,2.79 16.86,16.86 0 0 1 7.36,9.17 h 0.23 a 18.15,18.15 0 0 1 6,-8.37 c 2.94,-2.39 6.95,-3.59 12,-3.59 q 9.07,0 14.19,5.92 5.12,5.92 5.12,16.72 v 38 h -9.16 v -36.5 q 0,-8 -3.1,-12 -3.1,-4 -9.88,-4 a 19.37,19.37 0 0 0 -5.23,0.69 14.28,14.28 0 0 0 -4.42,2.08 10.07,10.07 0 0 0 -3.1,3.51 10.35,10.35 0 0 0 -1.15,5 v 41.22 h -9.19 v -36.5 q 0,-8 -3.1,-12 -3.1,-4 -9.66,-4 a 20,20 0 0 0 -5.28,0.69 14.09,14.09 0 0 0 -4.48,2.08 10.66,10.66 0 0 0 -3.16,3.51 10,10 0 0 0 -1.21,5 v 41.22 z"
     id="path1251"
     inkscape:connector-curvature="0"
     style="fill:#fab431" />
</svg>
